<svg width="159" height="138" viewBox="0 0 159 138" fill="none" xmlns="http://www.w3.org/2000/svg">
<path d="M61.7294 51.3477C61.5891 51.3477 61.4488 51.3477 61.3085 51.3477L47.092 50.4592C43.5847 50.2254 40.8723 47.1857 41.1062 43.6783L41.9947 29.4619C42.2285 25.9545 45.2682 23.2421 48.7756 23.476L62.992 24.3645C64.6756 24.458 66.2656 25.253 67.3879 26.5157C68.5103 27.8251 69.0715 29.4619 68.9779 31.1454L68.1362 45.3619C67.9023 48.7289 65.0965 51.3477 61.7294 51.3477ZM61.3553 51.0204C64.7223 51.2542 67.6217 48.6821 67.8556 45.3151L68.7441 31.0986C68.8376 29.4619 68.3232 27.9186 67.2009 26.656C66.1253 25.4401 64.6288 24.6919 62.992 24.5983L48.7756 23.7098C45.4085 23.476 42.5091 26.048 42.2753 29.4151L41.3867 43.6316C41.1529 46.9986 43.725 49.898 47.092 50.1318L61.3553 51.0204Z" fill="#B2A294"/>
<path d="M56.7723 0H56.4917V22.4003H56.7723V0Z" fill="#B2A294"/>
<path d="M57.3803 53.639C56.2111 53.639 55.042 53.3117 54.0132 52.7037L41.8544 45.2214C38.8147 43.3508 37.8794 39.3758 39.75 36.3361L47.2323 24.1772C48.1209 22.7275 49.5706 21.6987 51.2073 21.2778C52.8909 20.857 54.6212 21.1375 56.0709 22.0728L68.2297 29.5552C71.2694 31.4258 72.2047 35.4008 70.3341 38.4405L62.8517 50.5993C61.6826 52.5167 59.5314 53.639 57.3803 53.639ZM52.7506 21.5117C52.2829 21.5117 51.8153 21.5584 51.3009 21.6987C49.7109 22.0728 48.3547 23.0549 47.5129 24.4111L40.0306 36.5699C38.3003 39.3758 39.2356 43.117 42.0882 44.894L54.247 52.3764C57.0997 54.1534 60.8409 53.2181 62.6179 50.3655L70.1003 38.2067C71.8773 35.354 70.942 31.6128 68.0894 29.8358L55.9306 22.3534C54.9485 21.7922 53.8729 21.5117 52.7506 21.5117Z" fill="#B2A294"/>
<path d="M58.3156 52.47C58.035 52.47 57.7544 52.47 57.5206 52.4232C55.8838 52.1427 52.7038 51.1606 51.3944 50.6929C48.0273 49.5238 46.1567 46.7179 46.3906 43.2106L47.2791 28.8538C47.5129 25.2997 50.5526 22.5874 54.06 22.8212L59.2509 23.8968C63.0388 25.0191 65.4238 28.2927 65.19 32.0338L64.3015 46.3906C64.1612 48.2612 63.2726 50.0382 61.8229 51.2074C60.7473 52.0491 59.5782 52.47 58.3156 52.47ZM53.6391 23.055C50.4123 23.055 47.7 25.5803 47.5129 28.8538L46.6244 43.2106C46.3906 46.6244 48.2144 49.3368 51.4412 50.4591C52.7506 50.9268 55.8838 51.9088 57.5206 52.1427C58.9703 52.3765 60.42 51.9556 61.6359 50.9735C63.0388 49.8512 63.9273 48.1209 64.0676 46.2971L64.9562 31.9403C65.19 28.2927 62.8517 25.1127 59.2041 24.0371L54.0132 22.9615C53.9197 23.055 53.7794 23.055 53.6391 23.055Z" fill="#D1BFB2"/>
<path d="M53.4988 25.3933C53.4988 25.3933 54.5744 26.2351 56.8659 26.0948C59.1573 25.9077 59.3912 25.2062 59.3912 25.2062C59.3912 25.2062 59.3912 23.8968 57.5673 23.8968C55.7435 23.8501 53.5923 25.0659 53.4988 25.3933Z" fill="#827064"/>
<path d="M53.4988 25.3932C53.4988 25.3932 53.452 22.8679 53.452 22.447C53.452 22.0261 53.8261 21.5117 54.7147 21.4649C55.6032 21.3714 57.6609 21.3714 58.035 21.4182C58.3623 21.4649 59.3911 21.4182 59.4379 22.3535C59.4847 23.2888 59.3911 25.2061 59.3911 25.2061C59.3911 25.2061 58.4559 24.832 57.9414 24.832C57.427 24.7852 55.9773 24.832 55.6967 24.8788C55.4161 24.832 53.9197 25.2061 53.4988 25.3932Z" fill="#F2E4DA"/>
<mask id="mask0_671_4595" style="mask-type:alpha" maskUnits="userSpaceOnUse" x="53" y="21" width="7" height="5">
<path d="M53.4988 25.3932C53.4988 25.3932 53.452 22.8679 53.452 22.447C53.452 22.0261 53.8261 21.5117 54.7147 21.4649C55.6032 21.3714 57.6609 21.3714 58.035 21.4182C58.3623 21.4649 59.3911 21.4182 59.4379 22.3535C59.4847 23.2888 59.3911 25.2061 59.3911 25.2061C59.3911 25.2061 58.4559 24.832 57.9414 24.832C57.427 24.7852 55.9773 24.832 55.6967 24.8788C55.4161 24.832 53.9197 25.2061 53.4988 25.3932Z" fill="#F2E4DA"/>
</mask>
<g mask="url(#mask0_671_4595)">
<path d="M60.0926 20.5764H56.6788V25.627H60.0926V20.5764Z" fill="#B2A294"/>
<path d="M58.0817 20.5764H55.6967V25.627H58.0817V20.5764Z" fill="#D1BFB2"/>
</g>
<path opacity="0.66" d="M59.3444 29.0878C59.017 28.8539 58.4559 28.2928 58.4559 27.2172C58.4091 25.6272 54.9017 27.5445 54.9017 27.5445C54.9017 27.5445 54.7614 28.8072 53.9197 29.5554C52.657 30.4907 51.862 32.0339 51.862 33.7175C51.862 36.5701 54.2003 38.9084 57.0529 38.9084C59.9056 38.9084 62.2438 36.5701 62.2438 33.7175C62.197 31.7066 61.0279 29.9295 59.3444 29.0878Z" fill="white"/>
<path d="M57.0061 31.8001H56.9594C56.8658 31.8001 56.8191 31.7534 56.7723 31.7066C56.445 31.4728 56.2579 31.1454 56.2111 30.9116C56.1176 30.5842 56.0708 30.2569 56.0241 29.9763C55.9773 29.0878 56.0241 28.246 56.2111 27.3575L56.3514 27.4042C56.1644 28.246 56.1176 29.0878 56.1644 29.9763C56.1644 30.2569 56.2111 30.5842 56.3047 30.9116C56.3982 31.1454 56.5385 31.426 56.8191 31.6131C56.8658 31.6598 56.9126 31.6598 56.9594 31.6598C57.0061 31.6598 57.0997 31.6598 57.1932 31.5663C57.427 31.3792 57.4738 31.0051 57.5205 30.7713C57.5673 30.3972 57.5205 30.0231 57.4738 29.6489C57.4738 30.1634 57.3802 30.631 57.0061 30.9584L56.9594 31.0051L56.9126 30.9584C56.6788 30.7713 56.632 30.4907 56.632 30.2101C56.5852 29.5086 56.632 28.8072 56.6788 28.1525C56.7255 27.9186 56.7723 27.5913 57.0529 27.4978L57.1464 27.451V27.5445C57.1932 27.8251 57.2867 28.0589 57.3335 28.3395L57.3802 27.1704H57.5205L57.4738 28.9007C57.6141 29.5554 57.6608 30.1634 57.6141 30.8181C57.6141 31.0986 57.5205 31.4728 57.2399 31.7066C57.1932 31.7534 57.0997 31.8001 57.0061 31.8001ZM57.0529 27.6381C56.9126 27.7316 56.8658 27.9654 56.8658 28.1525C56.7723 28.8539 56.7723 29.5086 56.8191 30.2101C56.8191 30.4439 56.8658 30.6778 57.0061 30.8181C57.2867 30.4907 57.3335 30.0231 57.3802 29.5086V28.9007C57.2399 28.4798 57.1464 28.0589 57.0529 27.6381Z" fill="#D8D8D8"/>
<path d="M56.3047 37.3183C56.2579 37.3183 56.2579 37.3183 56.2111 37.3183C55.7902 37.3183 55.4161 37.1313 55.1823 36.8975C54.9017 36.5701 54.9017 36.1492 55.1823 35.8686C55.1823 35.8686 55.1823 35.8686 55.2291 35.8219C55.1823 35.7283 55.1355 35.6816 55.0888 35.588C55.042 35.4477 54.9485 35.3075 54.9952 35.0736C55.042 34.7463 55.3694 34.5125 55.6967 34.3722C55.6967 34.3722 55.6967 34.3722 55.7435 34.3722C55.4629 34.1851 55.2291 33.8577 55.2758 33.4836C55.3226 33.2966 55.4629 33.1095 55.6967 32.9692C55.4161 32.6419 55.2758 32.1275 55.5097 31.7533C55.5564 31.6598 55.65 31.613 55.6967 31.5195C55.5564 31.3792 55.5097 31.2389 55.5097 31.0986C55.5097 31.0051 55.5097 30.9116 55.6032 30.818C55.7435 30.5375 56.0241 30.3504 56.3982 30.3036C56.6788 30.2569 57.0061 30.2569 57.3802 30.3036L57.3335 30.4439C56.9594 30.3972 56.6788 30.3504 56.445 30.4439C56.1176 30.4907 55.8838 30.6777 55.7435 30.9116C55.6967 31.0051 55.6967 31.0519 55.6967 31.1454C55.6967 31.2389 55.7435 31.3325 55.8838 31.4727C55.9773 31.426 56.1176 31.3325 56.2579 31.2857C56.7255 31.0986 57.24 31.0519 57.7076 31.0986C57.8947 31.0986 58.2688 31.1922 58.3623 31.5195C58.4091 31.6598 58.3155 31.8469 58.1752 31.9404C58.0817 32.0339 57.9414 32.0807 57.7544 32.1274C57.0997 32.3145 56.3047 32.0807 55.837 31.613C55.7435 31.6598 55.6967 31.7533 55.65 31.8001C55.4161 32.1275 55.5564 32.5951 55.837 32.8757C55.9305 32.8289 56.0241 32.7822 56.1644 32.7354C56.7255 32.5483 57.2867 32.408 57.8479 32.408C58.035 32.408 58.222 32.408 58.4091 32.5016C58.5961 32.5951 58.7364 32.7354 58.7832 32.9225C58.7832 33.0627 58.7364 33.203 58.5961 33.3433C58.4091 33.5304 58.1285 33.6239 57.8479 33.6707C57.5205 33.7175 57.24 33.6707 57.0061 33.6239C56.4917 33.5304 56.1176 33.3433 55.837 33.1095C55.65 33.2498 55.5097 33.3901 55.4629 33.5772C55.4161 33.9045 55.65 34.2319 55.9305 34.3722C56.445 34.1851 57.0529 34.0916 57.6141 34.1851C57.7076 34.1851 57.8011 34.2319 57.8947 34.2786C57.9882 34.3254 58.035 34.4189 57.9882 34.5592C57.9882 34.6995 57.8947 34.8398 57.7544 34.8866C57.5673 34.9801 57.3335 34.9801 57.0997 34.9333C56.5852 34.8398 56.1644 34.7463 55.837 34.5592C55.7902 34.5592 55.7902 34.606 55.7435 34.606C55.5097 34.6995 55.1823 34.9333 55.1355 35.2139C55.1355 35.3542 55.1355 35.4477 55.2291 35.6348C55.2758 35.7283 55.3226 35.7751 55.3226 35.8219C55.4161 35.7751 55.5097 35.7283 55.6032 35.7283C56.2579 35.5413 56.9594 35.5413 57.6141 35.5413C57.7076 35.5413 57.8011 35.5413 57.8479 35.6348C57.8947 35.6816 57.8947 35.7751 57.8947 35.8219C57.8947 35.9622 57.8947 36.1025 57.8947 36.2427C57.8947 36.3363 57.8947 36.383 57.8479 36.4766C57.8011 36.5233 57.8011 36.5233 57.7544 36.5701C57.7544 36.6169 57.7544 36.6636 57.7544 36.7104C57.7076 36.8507 57.5673 36.9442 57.4738 37.0377C57.0997 37.178 56.7255 37.3183 56.3047 37.3183ZM55.2758 35.9622C55.042 36.196 55.0888 36.5701 55.2758 36.8039C55.4629 37.0377 55.7902 37.178 56.2111 37.178C56.632 37.178 57.0529 37.0845 57.3802 36.8507C57.4738 36.8039 57.5673 36.7104 57.6141 36.6169C57.6141 36.6169 57.6141 36.6169 57.5673 36.6169C57.0997 36.8039 56.5852 36.8039 56.1176 36.6169C55.7902 36.4766 55.5097 36.2427 55.2758 35.9622ZM55.4161 35.8686C55.6032 36.1492 55.8838 36.3363 56.1644 36.4766C56.5852 36.6636 57.0997 36.6636 57.5205 36.4766C57.5205 36.4766 57.5673 36.4766 57.5673 36.4298C57.5673 36.4298 57.5205 36.383 57.4738 36.383V36.2427C57.5205 36.2427 57.6141 36.2895 57.6608 36.3363C57.6608 36.3363 57.6608 36.3363 57.6608 36.2895C57.7076 36.2427 57.7076 36.196 57.7076 36.1025C57.7076 35.9622 57.7076 35.8219 57.7076 35.6816C57.7076 35.6348 57.7076 35.588 57.6608 35.588C57.6141 35.5413 57.5673 35.5413 57.5205 35.5413C56.9126 35.5413 56.2111 35.4945 55.6032 35.6816C55.6032 35.8219 55.5097 35.8219 55.4161 35.8686ZM55.9773 34.4657C56.2579 34.606 56.632 34.7463 57.0529 34.793C57.24 34.8398 57.4738 34.8398 57.6141 34.7463C57.7076 34.6995 57.7544 34.606 57.7544 34.5125C57.7544 34.4657 57.7544 34.4189 57.7076 34.3722C57.6608 34.3254 57.5673 34.3254 57.5205 34.3254C57.0061 34.2319 56.4917 34.2786 55.9773 34.4657ZM55.837 33.016C56.0708 33.203 56.445 33.3901 56.9126 33.4836C57.0997 33.5304 57.3802 33.5772 57.7076 33.5304C57.9882 33.4836 58.222 33.3901 58.3623 33.2498C58.4091 33.203 58.5026 33.0627 58.5026 32.9225C58.5026 32.7822 58.3623 32.6886 58.222 32.6419C58.0817 32.5951 57.8947 32.5951 57.7544 32.5951C57.1932 32.5951 56.632 32.7354 56.1176 32.9225C56.0241 32.9225 55.9305 32.9692 55.837 33.016ZM55.8838 31.5663C56.3514 31.9872 57.0529 32.1742 57.6608 32.0339C57.8011 31.9872 57.9414 31.9404 58.035 31.8469C58.1285 31.7533 58.1752 31.6598 58.1752 31.5663C58.1285 31.3325 57.7544 31.2857 57.6608 31.2389C57.1932 31.1922 56.7255 31.2389 56.2579 31.426C56.0708 31.426 55.9773 31.4727 55.8838 31.5663Z" fill="#D8D8D8"/>
<path d="M59.625 52.3296C58.4559 52.3296 57.24 51.9088 56.3047 51.1138C55.1823 50.1785 54.3873 48.8223 54.1535 47.1855C53.9197 45.8293 53.3117 40.3111 52.8441 34.6993C52.3765 29.8358 52.0023 23.8499 52.5635 22.9146C52.8441 22.3535 53.1715 22.1196 53.5456 22.1196C54.2003 22.1664 54.6679 23.1485 54.6679 23.1952L54.3873 23.2887C54.2938 23.0549 53.9197 22.4002 53.4988 22.3535C53.2182 22.3535 52.9376 22.6808 52.7973 23.0082C51.862 24.6917 53.8729 44.1926 54.3873 47.1388C54.8082 49.664 56.8191 52.1893 59.812 52.049C59.9523 52.049 60.0459 51.9555 60.1862 51.862C62.3841 49.1964 58.8767 25.7673 58.8767 25.5335L59.1573 25.4867C59.2976 26.4687 62.7115 49.2899 60.42 52.049C60.2797 52.2361 60.0459 52.3296 59.8588 52.3764C59.7653 52.3296 59.6717 52.3296 59.625 52.3296Z" fill="#B2A294"/>
<path d="M58.6897 27.4975C58.6897 27.4975 58.1285 27.6846 56.632 27.6846C55.3694 27.6846 54.5276 27.5443 54.5276 27.5443V25.4866C54.5276 25.4866 55.0888 25.2061 56.5385 25.2061C57.8011 25.2061 58.6429 25.4866 58.6429 25.4866V27.4975H58.6897Z" fill="#A09084"/>
<path d="M55.9306 99.0009L53.4521 114.246C53.4521 114.246 52.9377 114.714 53.9197 114.854C54.9018 115.041 55.8839 114.761 55.8839 114.761L60.42 98.7203C60.3733 98.7203 58.035 97.4577 55.9306 99.0009Z" fill="#614A36"/>
<mask id="mask1_671_4595" style="mask-type:alpha" maskUnits="userSpaceOnUse" x="53" y="98" width="8" height="17">
<path d="M55.9306 99.0009L53.4521 114.246C53.4521 114.246 52.9377 114.714 53.9197 114.854C54.9018 115.041 55.8839 114.761 55.8839 114.761L60.42 98.7203C60.3733 98.7203 58.035 97.4577 55.9306 99.0009Z" fill="#614A36"/>
</mask>
<g mask="url(#mask1_671_4595)">
<path d="M59.2042 97.4578L55.2759 115.977L58.4092 115.182L63.6468 98.206L59.2042 97.4578Z" fill="#3A291C"/>
</g>
<path d="M127.013 99.3283L129.491 114.574C129.491 114.574 130.006 115.041 129.024 115.182C128.042 115.369 127.06 115.088 127.06 115.088L122.524 99.0477C122.524 99.0477 124.862 97.7851 127.013 99.3283Z" fill="#614A36"/>
<mask id="mask2_671_4595" style="mask-type:alpha" maskUnits="userSpaceOnUse" x="122" y="98" width="8" height="18">
<path d="M127.013 99.3283L129.491 114.574C129.491 114.574 130.006 115.041 129.024 115.182C128.042 115.369 127.06 115.088 127.06 115.088L122.524 99.0477C122.524 99.0477 124.862 97.7851 127.013 99.3283Z" fill="#614A36"/>
</mask>
<g mask="url(#mask2_671_4595)">
<path d="M123.693 97.7852L127.621 116.304L124.488 115.509L119.25 98.5334L123.693 97.7852Z" fill="#3A291C"/>
</g>
<path d="M101.059 116.678C101.059 116.678 101.152 117.847 101.854 118.034C102.555 118.221 104.098 117.66 104.098 117.66L104.566 100.404C104.566 100.404 101.292 99.9363 100.451 101.012L101.059 116.678Z" fill="#614A36"/>
<mask id="mask3_671_4595" style="mask-type:alpha" maskUnits="userSpaceOnUse" x="100" y="100" width="5" height="19">
<path d="M101.059 116.678C101.059 116.678 101.152 117.847 101.854 118.034C102.555 118.221 104.098 117.66 104.098 117.66L104.566 100.404C104.566 100.404 101.292 99.9363 100.451 101.012L101.059 116.678Z" fill="#614A36"/>
</mask>
<g mask="url(#mask3_671_4595)">
<path d="M103.303 98.5801L103.818 119.484L105.314 118.268L105.782 98.7671L103.303 98.5801Z" fill="#3A291C"/>
</g>
<path d="M81.0433 110.412C81.0433 110.412 81.1835 111.581 81.885 111.721C82.5865 111.861 84.0829 111.3 84.0829 111.3L83.9894 94.0439C83.9894 94.0439 80.6691 93.7166 79.9209 94.7922L81.0433 110.412Z" fill="#614A36"/>
<mask id="mask4_671_4595" style="mask-type:alpha" maskUnits="userSpaceOnUse" x="79" y="93" width="6" height="19">
<path d="M81.0433 110.412C81.0433 110.412 81.1835 111.581 81.885 111.721C82.5865 111.861 84.0829 111.3 84.0829 111.3L83.9894 94.0439C83.9894 94.0439 80.6691 93.7166 79.9209 94.7922L81.0433 110.412Z" fill="#614A36"/>
</mask>
<g mask="url(#mask4_671_4595)">
<path d="M82.7268 92.2668L83.8959 113.171L85.3924 111.861L85.2053 92.3604L82.7268 92.2668Z" fill="#3A291C"/>
</g>
<path d="M80.7159 67.1542C80.7159 67.1542 64.8159 66.9671 59.9524 67.1542C55.0888 67.3412 51.2074 67.2945 48.495 68.7442C45.7827 70.2406 44.8006 74.7768 45.6424 83.9895C46.4841 93.2021 46.3906 92.1265 46.6712 94.3712C46.905 96.6159 47.0453 99.4218 49.6174 100.357C52.2362 101.292 55.7903 101.012 57.8479 101.105C59.9056 101.246 74.7768 102.274 77.2553 102.415C79.7338 102.555 106.811 104.706 106.811 104.706L108.401 68.7442L80.7159 67.1542Z" fill="#CCBCAC"/>
<path d="M80.6224 67.7621C80.6224 67.7621 66.3124 67.7153 61.7294 68.0427C57.1465 68.4168 55.3694 68.0894 53.8262 69.2118C52.283 70.3341 50.085 72.345 51.3477 79.5468C52.6103 86.7486 51.7685 88.058 53.9197 89.7415C61.6827 91.8927 101.199 93.015 101.199 93.015L86.8888 74.543L80.6224 67.7621Z" fill="#B2A294"/>
<path d="M83.5218 50.506C82.7268 51.0204 82.5865 55.1357 81.8382 58.5963C81.1368 62.0568 80.4353 68.9313 79.4532 70.8018C78.5179 72.7192 77.6762 79.5936 78.3776 80.4354C79.0791 81.2771 122.524 84.9248 122.524 84.9248L127.153 69.1183C127.153 69.1183 126.545 68.3701 126.639 68.0895C126.686 67.8557 126.919 67.0139 127.06 66.2657C127.2 65.5174 127.106 64.9095 127.434 64.3483C127.714 63.8339 127.434 63.226 127.668 62.5245C127.901 61.823 127.714 61.3554 128.135 60.7007C128.556 60.046 128.509 58.9704 128.509 58.2689C128.509 57.5674 128.369 57.1466 128.743 56.6789C129.117 56.2113 129.491 55.5566 129.211 54.481C128.93 53.4054 126.779 50.8801 126.265 50.6463C125.75 50.4124 120.466 51.3945 118.315 51.2542C116.164 51.0671 106.811 50.7398 105.267 51.0204C103.724 51.301 96.0547 51.301 93.6229 51.2074C91.1912 51.0204 83.9894 50.1786 83.5218 50.506Z" fill="#EADBCE"/>
<mask id="mask5_671_4595" style="mask-type:alpha" maskUnits="userSpaceOnUse" x="78" y="50" width="52" height="35">
<path d="M83.5218 50.506C82.7268 51.0204 82.5865 55.1357 81.8382 58.5963C81.1368 62.0568 80.4353 68.9313 79.4532 70.8018C78.5179 72.7192 77.6762 79.5936 78.3776 80.4354C79.0791 81.2771 122.524 84.9248 122.524 84.9248L127.153 69.1183C127.153 69.1183 126.545 68.3701 126.639 68.0895C126.686 67.8557 126.919 67.0139 127.06 66.2657C127.2 65.5174 127.106 64.9095 127.434 64.3483C127.714 63.8339 127.434 63.226 127.668 62.5245C127.901 61.823 127.714 61.3554 128.135 60.7007C128.556 60.046 128.509 58.9704 128.509 58.2689C128.509 57.5674 128.369 57.1466 128.743 56.6789C129.117 56.2113 129.491 55.5566 129.211 54.481C128.93 53.4054 126.779 50.8801 126.265 50.6463C125.75 50.4124 120.466 51.3945 118.315 51.2542C116.164 51.0671 106.811 50.7398 105.267 51.0204C103.724 51.301 96.0547 51.301 93.6229 51.2074C91.1912 51.0204 83.9894 50.1786 83.5218 50.506Z" fill="#EADBCE"/>
</mask>
<g mask="url(#mask5_671_4595)">
<path d="M121.916 72.6723C121.916 72.6723 123.973 65.0029 124.067 62.5244C124.114 60.0459 124.721 58.0818 125.236 56.6321C125.75 55.2291 126.966 52.2829 126.171 49.9447C125.423 47.5597 133.7 53.5456 133.7 53.5456L132.344 78.1906L121.916 72.6723Z" fill="#D6C5B6"/>
</g>
<path d="M113.779 104.613C117.333 104.426 129.912 103.911 131.596 103.724C133.279 103.537 135.711 102.041 136.693 93.2021C137.675 84.4103 138.751 76.5539 138.938 74.5898C139.125 72.6256 139.733 70.0536 137.956 69.165C136.179 68.2765 120.793 68.7909 120.793 68.7909L109.383 69.8665L106.109 74.2156V102.181L106.904 104.659C106.857 104.706 106.203 105.08 113.779 104.613Z" fill="#B2A294"/>
<path d="M53.873 80.1548C53.9665 81.3239 53.4053 82.5398 54.1536 83.8025C54.855 85.0651 53.5456 85.3925 53.4521 87.0292C53.3586 88.666 52.9844 89.3207 54.855 90.0689C56.7256 90.7704 68.2765 90.9575 71.2227 91.3316C74.1688 91.7057 97.3174 92.5942 98.8138 92.5942C100.31 92.5942 100.684 93.4828 102.461 92.1266C104.239 90.7704 103.256 80.716 103.256 80.716C103.256 80.716 93.623 78.8454 92.033 79.5469C90.443 80.2484 87.3097 79.921 85.9068 79.8275C84.5038 79.7339 80.5756 80.0145 77.723 80.1081C74.8703 80.2016 73.1868 78.6584 68.9312 78.9389C66.2656 79.126 57.2868 79.0325 56.1177 79.3131C54.9485 79.5001 53.873 80.1548 53.873 80.1548Z" fill="#EADBCE"/>
<mask id="mask6_671_4595" style="mask-type:alpha" maskUnits="userSpaceOnUse" x="53" y="78" width="51" height="15">
<path d="M53.8729 80.1548C53.9665 81.3239 53.4053 82.5398 54.1535 83.8025C54.855 85.0651 53.5456 85.3925 53.452 87.0292C53.3585 88.666 52.9844 89.3207 54.855 90.0689C56.7256 90.7704 68.2765 90.9575 71.2226 91.3316C74.1688 91.7057 97.3173 92.5942 98.8138 92.5942C100.31 92.5942 100.684 93.4828 102.461 92.1266C104.239 90.7704 103.256 80.716 103.256 80.716C103.256 80.716 93.6229 78.8454 92.0329 79.5469C90.4429 80.2484 87.3097 79.921 85.9067 79.8275C84.5038 79.7339 80.5756 80.0145 77.7229 80.1081C74.8703 80.2016 73.1868 78.6584 68.9312 78.9389C66.2656 79.126 57.2868 79.0325 56.1176 79.3131C54.9485 79.5001 53.8729 80.1548 53.8729 80.1548Z" fill="#EADBCE"/>
</mask>
<g mask="url(#mask6_671_4595)">
<path d="M52.3765 80.2482C52.3765 80.2482 59.4847 78.8453 68.1362 80.5756C71.0823 81.1835 77.6762 82.0721 80.2015 82.0721C83.2879 82.0721 91.8459 81.885 93.4826 82.3527C95.0726 82.8203 98.6735 83.1944 99.0009 83.6621C99.2815 84.1297 106.062 79.6403 106.062 79.6403L100.684 76.0862L53.1247 77.8165L52.3765 80.2482Z" fill="#D6C5B6"/>
<path d="M98.6735 83.662C98.6735 83.662 99.4218 88.2449 99.0476 93.5761C99.0476 93.5761 102.274 94.0905 103.444 93.5761C104.613 93.0617 106.717 83.2879 106.249 82.3994C105.782 81.5108 107.091 82.0252 106.436 81.9785C101.994 81.5576 98.6735 83.662 98.6735 83.662Z" fill="#C1B2A7"/>
</g>
<path d="M100.684 94.839L106.811 104.8C106.811 104.8 107.278 104.893 107.512 104.472C107.652 104.192 107.886 83.101 108.681 78.8454C109.476 74.5899 110.178 71.5502 112.048 70.6616C113.919 69.7731 125.844 68.791 130.754 68.9781C135.664 69.1651 137.862 69.2587 137.862 69.2587C137.862 69.2587 136.88 67.9025 127.621 68.1831C118.361 68.4637 109.383 67.014 105.361 70.3343C101.433 73.561 100.264 93.2022 100.684 94.839Z" fill="#CCBCAC"/>
<path d="M142.352 117.099V116.117H137.722C134.682 115.836 130.474 115.649 125.75 115.649C121.027 115.649 116.771 115.836 113.779 116.117H109.149V117.099C109.149 117.146 109.149 117.146 109.149 117.192C109.149 118.034 116.584 118.736 125.75 118.736C134.916 118.736 142.352 118.034 142.352 117.192C142.399 117.146 142.399 117.146 142.352 117.099Z" fill="#B2A294"/>
<path d="M142.399 116.117C142.399 116.958 134.963 117.66 125.797 117.66C116.631 117.66 109.196 116.958 109.196 116.117C109.196 115.275 116.631 114.573 125.797 114.573C134.963 114.62 142.399 115.275 142.399 116.117Z" fill="white"/>
<path d="M102.602 26.4688C102.368 30.3035 99.0944 31.8935 95.2597 31.6597C91.425 31.4259 88.4321 29.415 88.6659 25.5803C88.8997 21.7456 92.2668 18.7994 96.1015 19.08C99.9362 19.3138 102.882 22.6341 102.602 26.4688Z" fill="white"/>
<mask id="mask7_671_4595" style="mask-type:alpha" maskUnits="userSpaceOnUse" x="88" y="19" width="15" height="13">
<path d="M102.602 26.4688C102.368 30.3035 99.0945 31.8935 95.2598 31.6597C91.425 31.4259 88.4321 29.415 88.6659 25.5803C88.8998 21.7456 92.2668 18.7994 96.1015 19.08C99.9362 19.3138 102.882 22.6341 102.602 26.4688Z" fill="white"/>
</mask>
<g mask="url(#mask7_671_4595)">
<path d="M102.695 31.9871C102.274 33.7174 98.5332 34.2318 94.3244 33.203C90.1156 32.1742 87.0759 29.9295 87.4968 28.1992C87.9177 26.4689 91.6588 25.9545 95.8677 26.9833C100.03 28.0121 103.116 30.2568 102.695 31.9871Z" fill="#E2D0C3"/>
</g>
<path d="M101.012 23.9902L132.438 43.3041C135.851 45.4085 137.816 49.1496 137.582 53.1246L134.215 116.351" stroke="white" stroke-width="2" stroke-miterlimit="10"/>
<path d="M35.3541 96.5225L39.2823 114.246H37.8326L31.5662 96.5225H35.3541Z" fill="#3A291C"/>
<path d="M35.3541 96.5225L39.2823 114.246H38.7212L33.1094 96.5225H35.3541Z" fill="#614A36"/>
<path d="M22.8212 96.5225L18.8929 114.246H20.3426L26.6091 96.5225H22.8212Z" fill="#3A291C"/>
<path d="M22.8212 96.5225L18.8929 114.246H19.6879L25.2997 96.5225H22.8212Z" fill="#614A36"/>
<path d="M29.8826 97.0369L28.8538 116.07H27.6847L26.8897 96.7563L29.8826 97.0369Z" fill="#614A36"/>
<path d="M29.9294 97.4576C40.1829 97.4576 48.495 96.7039 48.495 95.7741C48.495 94.8443 40.1829 94.0906 29.9294 94.0906C19.6759 94.0906 11.3638 94.8443 11.3638 95.7741C11.3638 96.7039 19.6759 97.4576 29.9294 97.4576Z" fill="#B2A294"/>
<path d="M11.4067 95.6897H48.4911V94.6141H11.4067V95.6897Z" fill="#B2A294"/>
<path d="M11.4106 94.5583C11.4106 95.4936 19.7347 96.2418 29.9762 96.2418C40.2176 96.2418 48.5418 95.4936 48.5418 94.5583C48.5418 93.623 40.2176 92.8748 29.9294 92.8748C19.6412 92.8748 11.4106 93.623 11.4106 94.5583Z" fill="#EFE3DA"/>
<path d="M30.6308 93.997L28.4329 95.6805L22.6341 95.6337L18.9864 93.997L21.9326 92.5005L27.7314 92.5472L30.6308 93.997Z" fill="#D8C5B8"/>
<path d="M29.8359 93.8569L27.3574 95.026L22.3535 94.9792L19.875 93.8569L22.4003 92.5942L27.4041 92.641L29.8359 93.8569Z" fill="white"/>
<path d="M29.8359 86.468H19.875V93.8568H29.8359V86.468Z" fill="white"/>
<path d="M29.8359 86.4679L27.3574 87.6838L22.3535 87.637L19.875 86.4679L22.4003 86.0002H27.4041L29.8359 86.4679Z" fill="#8C7B6D"/>
<path d="M28.4797 80.295C27.5444 77.1618 24.9723 77.115 24.832 77.115C24.6917 77.115 22.1197 77.1618 21.1844 80.295C20.2023 83.5218 21.3247 86.1406 23.0082 87.8241C23.0082 87.8241 23.9903 88.0112 24.832 88.0112C25.627 88.0112 26.6558 87.8241 26.6558 87.8241C28.3394 86.1874 29.415 83.5685 28.4797 80.295Z" fill="white"/>
<path d="M24.832 77.115C24.832 77.115 22.2599 77.0683 21.3714 80.295C20.4361 83.5218 21.5117 86.1406 23.1017 87.8242C23.1017 87.8242 24.0838 88.0112 24.832 88.0112V77.115Z" fill="#EADBCE"/>
<path d="M24.832 77.115C24.832 77.115 27.4041 77.0683 28.2926 80.295C29.1811 83.5218 28.1523 86.1406 26.5623 87.8242C26.5623 87.8242 25.5802 88.0112 24.832 88.0112V77.115Z" fill="#EADBCE"/>
<path d="M24.832 77.115C24.832 77.115 27.0299 77.0683 27.7782 80.295C28.5732 83.5218 27.6379 86.1406 26.2817 87.8242C26.2817 87.8242 25.4867 88.0112 24.7852 88.0112V77.115H24.832Z" fill="#CCBCAC"/>
<path d="M24.832 77.115C24.832 77.115 22.8211 77.0683 22.1196 80.295C21.4182 83.5218 22.2132 86.1406 23.4758 87.8242C23.4758 87.8242 24.224 88.0112 24.832 88.0112V77.115Z" fill="white"/>
<path d="M24.832 77.115C24.832 77.115 26.8429 77.0683 27.5444 80.295C28.2458 83.5218 27.4508 86.1406 26.1882 87.8242C26.1882 87.8242 25.4399 88.0112 24.832 88.0112V77.115Z" fill="white"/>
<path d="M24.832 77.115C24.832 77.115 22.9614 77.0683 22.3067 80.295C21.652 83.5218 22.4003 86.1406 23.5694 87.8242C23.5694 87.8242 24.2708 88.0112 24.832 88.0112V77.115Z" fill="#EADBCE"/>
<path d="M24.832 77.115C24.832 77.115 26.7026 77.0683 27.3573 80.295C28.012 83.5218 27.2638 86.1406 26.0946 87.8242C26.0946 87.8242 25.3932 88.0112 24.832 88.0112V77.115Z" fill="#D6C5B6"/>
<path d="M24.832 77.115C24.832 77.115 26.1882 77.0683 26.7026 80.295C27.217 83.5218 26.6091 86.1406 25.7673 87.8242C25.7673 87.8242 25.2529 88.0112 24.832 88.0112V77.115Z" fill="#CCBCAC"/>
<path d="M24.832 77.115C24.832 77.115 23.242 77.0683 22.6808 80.295C22.1196 83.5218 22.7743 86.1406 23.7564 87.8242C23.7564 87.8242 24.3643 88.0112 24.832 88.0112V77.115Z" fill="#D6C5B6"/>
<path d="M24.832 77.115C24.832 77.115 23.7564 77.0683 23.3823 80.295C23.0082 83.5218 23.4291 86.1406 24.1305 87.8242C24.1305 87.8242 24.5514 88.0112 24.8788 88.0112V77.115H24.832Z" fill="white"/>
<path d="M24.832 77.115C24.832 77.115 25.9076 77.0683 26.2817 80.295C26.6558 83.5218 26.2349 86.1406 25.5335 87.8242C25.5335 87.8242 25.1126 88.0112 24.7852 88.0112V77.115H24.832Z" fill="white"/>
<path d="M24.832 77.115C24.832 77.115 23.9435 77.0683 23.6161 80.295C23.2888 83.5218 23.6629 86.1406 24.2241 87.8242C24.2241 87.8242 24.5514 88.0112 24.832 88.0112V77.115Z" fill="#B5A291"/>
<path d="M24.832 77.115C24.832 77.115 25.7205 77.0683 26.0479 80.295C26.3752 83.5218 26.0011 86.1406 25.4399 87.8242C25.4399 87.8242 25.1126 88.0112 24.832 88.0112V77.115Z" fill="#D6C5B6"/>
<path d="M22.3535 94.979L27.3573 95.0258V87.6837L22.3535 87.637V94.979Z" fill="#F2E9E2"/>
<path d="M32.9691 95.3534C34.9578 95.3534 36.57 95.0602 36.57 94.6987C36.57 94.3371 34.9578 94.0439 32.9691 94.0439C30.9804 94.0439 29.3682 94.3371 29.3682 94.6987C29.3682 95.0602 30.9804 95.3534 32.9691 95.3534Z" fill="#D8C5B8"/>
<path d="M29.3682 92.22L33.1094 93.8568L32.8288 89.2271L29.3682 92.22Z" fill="#D6C5B6"/>
<path d="M29.3682 92.2202L30.6308 95.0729L33.1094 93.857L29.3682 92.2202Z" fill="#CCBCAC"/>
<path d="M33.1094 93.8569L30.6308 95.0728L34.8864 94.2778L33.1094 93.8569Z" fill="#B5A291"/>
<path d="M36.5232 90.864L34.0447 87.2163L32.8288 89.2272L36.5232 90.864Z" fill="#EADBCE"/>
<path d="M34.8864 94.2778L36.5232 90.864L33.1094 93.8569L34.8864 94.2778Z" fill="#D6C5B6"/>
<path d="M32.8288 89.2271L29.602 87.6838L29.3682 92.22L32.8288 89.2271Z" fill="#EADBCE"/>
<path d="M34.0447 87.2163L29.602 87.684L32.8288 89.2272L34.0447 87.2163Z" fill="white"/>
<path d="M28.1056 91.1914L30.6309 95.0729L29.3682 92.2202L28.1056 91.1914Z" fill="#B5A291"/>
<path d="M29.602 87.6838L28.1056 91.1912L29.3682 92.22L29.602 87.6838Z" fill="#D6C5B6"/>
<path d="M33.1094 93.8568L36.5232 90.8638L32.8288 89.2271L33.1094 93.8568Z" fill="#CCBCAC"/>
<path d="M79.2662 60.3732C80.7159 60.2797 82.3059 59.9991 85.4391 59.9991C88.5724 59.9991 96.8965 58.9235 99.7491 60.0926C102.649 61.2617 100.264 64.9562 100.544 68.8844C100.825 72.8126 100.918 80.0611 99.6088 81.09C98.2994 82.1188 90.3962 81.2303 86.1874 80.7159C81.9785 80.2014 80.6691 80.5756 76.8812 80.4353C73.0932 80.295 75.0574 75.9459 75.7121 72.532C76.4135 69.165 75.4782 60.607 79.2662 60.3732Z" fill="white"/>
<mask id="mask8_671_4595" style="mask-type:alpha" maskUnits="userSpaceOnUse" x="74" y="59" width="28" height="23">
<path d="M79.2662 60.3732C80.7159 60.2797 82.3059 59.9991 85.4391 59.9991C88.5724 59.9991 96.8965 58.9235 99.7491 60.0926C102.649 61.2617 100.264 64.9562 100.544 68.8844C100.825 72.8126 100.918 80.0611 99.6088 81.09C98.2994 82.1188 90.3962 81.2303 86.1874 80.7159C81.9785 80.2014 80.6691 80.5756 76.8812 80.4353C73.0932 80.295 75.0574 75.9459 75.7121 72.532C76.4135 69.165 75.4782 60.607 79.2662 60.3732Z" fill="white"/>
</mask>
<g mask="url(#mask8_671_4595)">
<path opacity="0.36" d="M101.947 59.999C101.339 60.5134 99.6088 58.8767 98.8606 63.0855C98.1124 67.2943 97.9721 70.147 98.2527 71.8773C98.4865 73.6076 98.7671 81.277 100.123 82.5396C101.479 83.7555 106.811 70.5211 106.811 70.5211L101.947 59.999Z" fill="#DDCEC3"/>
</g>
</svg>
