<svg width="59" height="100" viewBox="0 0 59 100" fill="none" xmlns="http://www.w3.org/2000/svg">
<path d="M9.30179 22.8633C9.30179 22.8633 15.4144 27.6471 28.4369 26.8498C41.4594 25.7867 42.7883 21.8002 42.7883 21.8002C42.7883 21.8002 42.7883 14.3588 32.4234 14.3588C22.0585 14.093 9.83332 21.0029 9.30179 22.8633Z" fill="#827064"/>
<path d="M9.30186 22.7646C9.30186 22.7646 9.0361 8.4133 9.0361 6.02141C9.0361 3.62952 11.1622 0.706104 16.2118 0.440339C21.2613 -0.0911925 32.955 -0.0911986 35.0811 0.174567C36.9415 0.440333 42.7883 0.174567 43.0541 5.48988C43.3199 10.8052 42.7883 21.7016 42.7883 21.7016C42.7883 21.7016 37.473 19.5755 34.5496 19.5755C31.6262 19.3097 23.3874 19.5755 21.7928 19.8412C20.1982 19.5755 11.6938 21.7016 9.30186 22.7646Z" fill="#F2E4DA"/>
<mask id="mask0_671_4830" style="mask-type:alpha" maskUnits="userSpaceOnUse" x="9" y="0" width="35" height="23">
<path d="M9.30186 22.7649C9.30186 22.7649 9.0361 8.41355 9.0361 6.02166C9.0361 3.62977 11.1622 0.706348 16.2118 0.440583C21.2613 -0.0909484 32.955 -0.0909545 35.0811 0.174811C36.9415 0.440577 42.7883 0.174811 43.0541 5.49012C43.3199 10.8054 42.7883 21.7018 42.7883 21.7018C42.7883 21.7018 37.473 19.5757 34.5496 19.5757C31.6262 19.3099 23.3874 19.5757 21.7928 19.8415C20.1982 19.5757 11.6938 21.7018 9.30186 22.7649Z" fill="#F2E4DA"/>
</mask>
<g mask="url(#mask0_671_4830)">
<path d="M46.7749 -4.60913H27.374V24.0936H46.7749V-4.60913Z" fill="#B2A294"/>
<path d="M35.3468 -4.60913H21.7927V24.0936H35.3468V-4.60913Z" fill="#D1BFB2"/>
</g>
<path d="M42.5225 43.7599C40.6622 42.4311 37.473 39.2419 37.473 33.1293C37.2072 24.0932 17.2748 34.9896 17.2748 34.9896C17.2748 34.9896 16.4775 42.1653 11.6937 46.4176C4.51802 51.7329 0 60.5031 0 70.0707C0 86.2824 13.2883 99.5707 29.5 99.5707C45.7117 99.5707 59 86.2824 59 70.0707C58.7342 58.6428 52.0901 48.5437 42.5225 43.7599Z" fill="white"/>
<path d="M29.2344 59.1743H28.9686C28.4371 59.1743 28.1713 58.9086 27.9055 58.6428C26.0452 57.314 24.9821 55.4536 24.7163 54.1248C24.1848 52.2644 23.9191 50.4041 23.6533 48.8095C23.3875 43.7599 23.6533 38.9761 24.7163 33.9266L25.5136 34.1924C24.4506 38.9761 24.1848 43.7599 24.4506 48.8095C24.4506 50.4041 24.7164 52.2644 25.2479 54.1248C25.7794 55.4536 26.5767 57.0482 28.1713 58.1113C28.4371 58.377 28.7028 58.377 28.9686 58.377C29.2344 58.377 29.7659 58.377 30.2974 57.8455C31.6263 56.7824 31.892 54.6563 32.1578 53.3275C32.4236 51.2014 32.1578 49.0752 31.892 46.9491C31.892 49.8725 31.3605 52.5302 29.2344 54.3905L28.9686 54.6563L28.7028 54.3905C27.374 53.3275 27.1082 51.7329 27.1082 50.1383C26.8425 46.1518 27.1082 42.1653 27.374 38.4446C27.6398 37.1158 27.9055 35.2554 29.5001 34.7239L30.0317 34.4581V34.9897C30.2974 36.5843 30.829 37.9131 31.0947 39.5077L31.3605 32.8635H32.1578L31.892 42.6969C32.6893 46.4176 32.9551 49.8725 32.6893 53.5933C32.6893 55.1878 32.1578 57.314 30.5632 58.6428C30.2974 58.9086 29.7659 59.1743 29.2344 59.1743ZM29.5001 35.5212C28.7028 36.0527 28.4371 37.3815 28.4371 38.4446C27.9055 42.4311 27.9055 46.1518 28.1713 50.1383C28.1713 51.4671 28.4371 52.796 29.2344 53.5933C30.829 51.7329 31.0947 49.0752 31.3605 46.1518V42.6969C30.5632 40.305 30.0317 37.9131 29.5001 35.5212Z" fill="#D8D8D8"/>
<path d="M25.2478 90.5346C24.9821 90.5346 24.982 90.5346 24.7163 90.5346C22.3244 90.5346 20.1983 89.4716 18.8694 88.1427C17.2748 86.2824 17.2748 83.8905 18.8694 82.2959C18.8694 82.2959 18.8694 82.2959 19.1352 82.0301C18.8694 81.4986 18.6037 81.2328 18.3379 80.7013C18.0721 79.904 17.5406 79.1067 17.8064 77.7779C18.0721 75.9175 19.9325 74.5887 21.7929 73.7914C21.7929 73.7914 21.7929 73.7914 22.0586 73.7914C20.464 72.7283 19.1352 70.868 19.401 68.7418C19.6667 67.6788 20.464 66.6157 21.7929 65.8184C20.1983 63.9581 19.401 61.0346 20.7298 58.9085C20.9956 58.377 21.5271 58.1112 21.7929 57.5797C20.9956 56.7824 20.7298 55.9851 20.7298 55.1878C20.7298 54.6563 20.7298 54.1247 21.2613 53.5932C22.0586 51.9986 23.6532 50.9355 25.7793 50.6698C27.3739 50.404 29.2343 50.404 31.3604 50.6698L31.0947 51.4671C28.9685 51.2013 27.3739 50.9355 26.0451 51.4671C24.1847 51.7328 22.8559 52.7959 22.0586 54.1247C21.7929 54.6563 21.7929 54.922 21.7929 55.4536C21.7929 55.9851 22.0586 56.5166 22.8559 57.3139C23.3875 57.0482 24.1848 56.5166 24.9821 56.2509C27.6397 55.1878 30.5631 54.922 33.2208 55.1878C34.2839 55.1878 36.41 55.7193 36.9415 57.5797C37.2073 58.377 36.6757 59.44 35.8784 59.9716C35.3469 60.5031 34.5496 60.7689 33.4866 61.0346C29.7658 62.0977 25.2478 60.7689 22.5902 58.1112C22.0586 58.377 21.7929 58.9085 21.5271 59.1743C20.1983 61.0346 20.9956 63.6923 22.5902 65.2869C23.1217 65.0211 23.6532 64.7554 24.4505 64.4896C27.6397 63.4265 30.8289 62.6292 34.0181 62.6292C35.0811 62.6292 36.1442 62.6292 37.2073 63.1608C38.2703 63.6923 39.0676 64.4896 39.3334 65.5527C39.3334 66.3499 39.0676 67.1473 38.2703 67.9445C37.2073 69.0076 35.6127 69.5391 34.0181 69.8049C32.1577 70.0707 30.5631 69.8049 29.2343 69.5391C26.3109 69.0076 24.1848 67.9445 22.5902 66.6157C21.5271 67.413 20.7298 68.2103 20.464 69.2734C20.1983 71.1337 21.5271 72.9941 23.1217 73.7914C26.0451 72.7283 29.5001 72.1968 32.6892 72.7283C33.2208 72.7283 33.7523 72.9941 34.2839 73.2599C34.8154 73.5256 35.0811 74.0572 34.8154 74.8545C34.8154 75.6517 34.2838 76.449 33.4866 76.7148C32.4235 77.2463 31.0947 77.2463 29.7658 76.9806C26.8424 76.449 24.4505 75.9175 22.5902 74.8545C22.3244 74.8545 22.3244 75.1202 22.0586 75.1202C20.7298 75.6517 18.8694 76.9806 18.6037 78.5752C18.6037 79.3725 18.6037 79.904 19.1352 80.967C19.401 81.4986 19.6667 81.7643 19.6667 82.0301C20.1983 81.7643 20.7298 81.4986 21.2613 81.4986C24.9821 80.4355 28.9685 80.4355 32.6892 80.4355C33.2208 80.4355 33.7523 80.4355 34.0181 80.967C34.2838 81.2328 34.2839 81.7643 34.2839 82.0301C34.2839 82.8274 34.2839 83.6247 34.2839 84.422C34.2839 84.9535 34.2838 85.2193 34.0181 85.7508C33.7523 86.0166 33.7523 86.0166 33.4866 86.2824C33.4866 86.5481 33.4866 86.8139 33.4866 87.0797C33.2208 87.877 32.4235 88.4085 31.892 88.94C29.7658 89.7373 27.6397 90.5346 25.2478 90.5346ZM19.401 82.8274C18.0721 84.1562 18.3379 86.2824 19.401 87.6112C20.464 88.94 22.3244 89.7373 24.7163 89.7373C27.1082 89.7373 29.5001 89.2058 31.3604 87.877C31.8919 87.6112 32.4235 87.0797 32.6892 86.5481C32.6892 86.5481 32.6893 86.5481 32.4235 86.5481C29.7658 87.6112 26.8424 87.6112 24.1848 86.5481C22.3244 85.7508 20.7298 84.422 19.401 82.8274ZM20.1983 82.2959C21.2613 83.8905 22.8559 84.9535 24.4505 85.7508C26.8424 86.8139 29.7658 86.8139 32.1577 85.7508C32.1577 85.7508 32.4235 85.7508 32.4235 85.4851C32.4235 85.4851 32.1577 85.2193 31.892 85.2193V84.422C32.1577 84.422 32.6893 84.6878 32.955 84.9535C32.955 84.9535 32.955 84.9535 32.955 84.6878C33.2208 84.422 33.2208 84.1562 33.2208 83.6247C33.2208 82.8274 33.2208 82.0301 33.2208 81.2328C33.2208 80.9671 33.2208 80.7013 32.955 80.7013C32.6893 80.4355 32.4235 80.4355 32.1577 80.4355C28.7028 80.4355 24.7163 80.1698 21.2613 81.2328C21.2613 82.0301 20.7298 82.0301 20.1983 82.2959ZM23.3874 74.3229C24.982 75.1202 27.1082 75.9175 29.5001 76.1833C30.5631 76.449 31.8919 76.449 32.6892 75.9175C33.2208 75.6518 33.4866 75.1202 33.4866 74.5887C33.4866 74.3229 33.4866 74.0571 33.2208 73.7914C32.955 73.5256 32.4235 73.5256 32.1577 73.5256C29.2343 72.9941 26.3109 73.2598 23.3874 74.3229ZM22.5902 66.0842C23.919 67.1472 26.0451 68.2103 28.7028 68.7418C29.7658 69.0076 31.3604 69.2734 33.2208 69.0076C34.8154 68.7418 36.1442 68.2103 36.9415 67.413C37.2073 67.1472 37.7388 66.3499 37.7388 65.5527C37.7388 64.7554 36.9415 64.2238 36.1442 63.9581C35.3469 63.6923 34.2838 63.6923 33.4866 63.6923C30.2974 63.6923 27.1082 64.4896 24.1848 65.5527C23.6532 65.5527 23.1217 65.8184 22.5902 66.0842ZM22.8559 57.8454C25.5136 60.2373 29.5001 61.3004 32.955 60.5031C33.7523 60.2373 34.5496 59.9716 35.0811 59.44C35.6127 58.9085 35.8784 58.377 35.8784 57.8454C35.6127 56.5166 33.4866 56.2509 32.955 55.9851C30.2974 55.7193 27.6397 55.9851 24.9821 57.0481C23.919 57.0481 23.3875 57.3139 22.8559 57.8454Z" fill="#D8D8D8"/>
<path d="M38.8017 34.7239C38.8017 34.7239 35.6126 35.787 27.108 35.787C19.9324 35.787 15.1486 34.9897 15.1486 34.9897V23.296C15.1486 23.296 18.3378 21.7014 26.5765 21.7014C33.7522 21.7014 38.536 23.296 38.536 23.296V34.7239H38.8017Z" fill="#A09084"/>
</svg>
